<mxfile host="app.diagrams.net" modified="2023-10-16T14:03:25.746Z" agent="Mozilla/5.0 (Windows NT 10.0; Win64; x64) AppleWebKit/537.36 (KHTML, like Gecko) Chrome/117.0.0.0 Safari/537.36 Edg/117.0.2045.60" etag="--A_koQ-4HPi6Hh28N3x" version="22.0.4" type="github">
  <diagram name="第 1 页" id="U8ZYwLHRuuHqSw_i_JJi">
    <mxGraphModel dx="1949" dy="2017" grid="1" gridSize="10" guides="1" tooltips="1" connect="1" arrows="1" fold="1" page="1" pageScale="1" pageWidth="1169" pageHeight="827" math="0" shadow="0">
      <root>
        <mxCell id="0" />
        <mxCell id="1" parent="0" />
        <mxCell id="GlCgljWv_Br-6OFDmJyN-48" style="edgeStyle=orthogonalEdgeStyle;rounded=0;orthogonalLoop=1;jettySize=auto;html=1;exitX=0.5;exitY=1;exitDx=0;exitDy=0;entryX=0.5;entryY=0;entryDx=0;entryDy=0;" edge="1" parent="1" source="GlCgljWv_Br-6OFDmJyN-2" target="GlCgljWv_Br-6OFDmJyN-11">
          <mxGeometry relative="1" as="geometry" />
        </mxCell>
        <mxCell id="GlCgljWv_Br-6OFDmJyN-49" style="edgeStyle=orthogonalEdgeStyle;rounded=0;orthogonalLoop=1;jettySize=auto;html=1;exitX=0.5;exitY=1;exitDx=0;exitDy=0;entryX=0.5;entryY=0;entryDx=0;entryDy=0;" edge="1" parent="1" source="GlCgljWv_Br-6OFDmJyN-2" target="GlCgljWv_Br-6OFDmJyN-13">
          <mxGeometry relative="1" as="geometry" />
        </mxCell>
        <mxCell id="GlCgljWv_Br-6OFDmJyN-50" style="edgeStyle=orthogonalEdgeStyle;rounded=0;orthogonalLoop=1;jettySize=auto;html=1;exitX=0.5;exitY=1;exitDx=0;exitDy=0;entryX=0.5;entryY=0;entryDx=0;entryDy=0;" edge="1" parent="1" source="GlCgljWv_Br-6OFDmJyN-2" target="GlCgljWv_Br-6OFDmJyN-9">
          <mxGeometry relative="1" as="geometry" />
        </mxCell>
        <mxCell id="GlCgljWv_Br-6OFDmJyN-52" style="edgeStyle=orthogonalEdgeStyle;rounded=0;orthogonalLoop=1;jettySize=auto;html=1;exitX=0.5;exitY=1;exitDx=0;exitDy=0;entryX=0.5;entryY=0;entryDx=0;entryDy=0;" edge="1" parent="1" source="GlCgljWv_Br-6OFDmJyN-2" target="GlCgljWv_Br-6OFDmJyN-7">
          <mxGeometry relative="1" as="geometry" />
        </mxCell>
        <mxCell id="GlCgljWv_Br-6OFDmJyN-53" style="edgeStyle=orthogonalEdgeStyle;rounded=0;orthogonalLoop=1;jettySize=auto;html=1;exitX=0.5;exitY=1;exitDx=0;exitDy=0;entryX=0.5;entryY=0;entryDx=0;entryDy=0;" edge="1" parent="1" source="GlCgljWv_Br-6OFDmJyN-2" target="GlCgljWv_Br-6OFDmJyN-5">
          <mxGeometry relative="1" as="geometry" />
        </mxCell>
        <mxCell id="GlCgljWv_Br-6OFDmJyN-59" style="edgeStyle=orthogonalEdgeStyle;rounded=0;orthogonalLoop=1;jettySize=auto;html=1;exitX=0.5;exitY=1;exitDx=0;exitDy=0;entryX=0.5;entryY=0;entryDx=0;entryDy=0;" edge="1" parent="1" source="GlCgljWv_Br-6OFDmJyN-2" target="GlCgljWv_Br-6OFDmJyN-57">
          <mxGeometry relative="1" as="geometry" />
        </mxCell>
        <mxCell id="GlCgljWv_Br-6OFDmJyN-2" value="围捕控制文件梳理" style="text;strokeColor=none;fillColor=none;html=1;fontSize=24;fontStyle=1;verticalAlign=middle;align=center;" vertex="1" parent="1">
          <mxGeometry x="850" y="-50" width="100" height="30" as="geometry" />
        </mxCell>
        <mxCell id="GlCgljWv_Br-6OFDmJyN-5" value="；" style="rounded=1;whiteSpace=wrap;html=1;strokeWidth=2;fillWeight=4;hachureGap=8;hachureAngle=45;fillColor=#e1d5e7;sketch=1;fillStyle=auto;strokeColor=#9673a6;" vertex="1" parent="1">
          <mxGeometry x="170" y="100" width="120" height="60" as="geometry" />
        </mxCell>
        <mxCell id="GlCgljWv_Br-6OFDmJyN-3" value="理论推导" style="text;strokeColor=none;fillColor=none;html=1;fontSize=24;fontStyle=1;verticalAlign=middle;align=center;" vertex="1" parent="1">
          <mxGeometry x="180" y="110" width="100" height="40" as="geometry" />
        </mxCell>
        <mxCell id="GlCgljWv_Br-6OFDmJyN-7" value="；" style="rounded=1;whiteSpace=wrap;html=1;strokeWidth=2;fillWeight=4;hachureGap=8;hachureAngle=45;fillColor=#dae8fc;sketch=1;fillStyle=auto;strokeColor=#6c8ebf;" vertex="1" parent="1">
          <mxGeometry x="490" y="100" width="120" height="60" as="geometry" />
        </mxCell>
        <mxCell id="GlCgljWv_Br-6OFDmJyN-8" value="理论文件" style="text;strokeColor=none;fillColor=none;html=1;fontSize=24;fontStyle=1;verticalAlign=middle;align=center;" vertex="1" parent="1">
          <mxGeometry x="500" y="110" width="100" height="40" as="geometry" />
        </mxCell>
        <mxCell id="GlCgljWv_Br-6OFDmJyN-9" value="；" style="rounded=1;whiteSpace=wrap;html=1;strokeWidth=2;fillWeight=4;hachureGap=8;hachureAngle=45;fillColor=#fff2cc;sketch=1;fillStyle=auto;strokeColor=#d6b656;" vertex="1" parent="1">
          <mxGeometry x="840" y="100.63" width="120" height="60" as="geometry" />
        </mxCell>
        <mxCell id="GlCgljWv_Br-6OFDmJyN-10" value="数值仿真" style="text;strokeColor=none;fillColor=none;html=1;fontSize=24;fontStyle=1;verticalAlign=middle;align=center;" vertex="1" parent="1">
          <mxGeometry x="850" y="110.63" width="100" height="40" as="geometry" />
        </mxCell>
        <mxCell id="GlCgljWv_Br-6OFDmJyN-11" value="；" style="rounded=1;whiteSpace=wrap;html=1;strokeWidth=2;fillWeight=4;hachureGap=8;hachureAngle=45;fillColor=#ffe6cc;sketch=1;fillStyle=auto;strokeColor=#d79b00;" vertex="1" parent="1">
          <mxGeometry x="1180" y="100" width="120" height="60" as="geometry" />
        </mxCell>
        <mxCell id="GlCgljWv_Br-6OFDmJyN-12" value="3D仿真" style="text;strokeColor=none;fillColor=none;html=1;fontSize=24;fontStyle=1;verticalAlign=middle;align=center;" vertex="1" parent="1">
          <mxGeometry x="1190" y="110" width="100" height="40" as="geometry" />
        </mxCell>
        <mxCell id="GlCgljWv_Br-6OFDmJyN-13" value="；" style="rounded=1;whiteSpace=wrap;html=1;strokeWidth=2;fillWeight=4;hachureGap=8;hachureAngle=45;fillColor=#d5e8d4;sketch=1;fillStyle=auto;strokeColor=#82b366;" vertex="1" parent="1">
          <mxGeometry x="1672" y="100" width="120" height="60" as="geometry" />
        </mxCell>
        <mxCell id="GlCgljWv_Br-6OFDmJyN-18" value="&lt;font style=&quot;font-size: 18px;&quot;&gt;&lt;b&gt;全驱动单艘&lt;/b&gt;&lt;/font&gt;" style="ellipse;whiteSpace=wrap;html=1;strokeWidth=2;fillWeight=2;hachureGap=8;fillColor=#fff2cc;fillStyle=dots;sketch=1;strokeColor=#d6b656;" vertex="1" parent="1">
          <mxGeometry x="170" y="210" width="120" height="60" as="geometry" />
        </mxCell>
        <mxCell id="GlCgljWv_Br-6OFDmJyN-14" value="论文" style="text;strokeColor=none;fillColor=none;html=1;fontSize=24;fontStyle=1;verticalAlign=middle;align=center;" vertex="1" parent="1">
          <mxGeometry x="1682" y="110" width="100" height="40" as="geometry" />
        </mxCell>
        <mxCell id="GlCgljWv_Br-6OFDmJyN-19" value="&lt;font style=&quot;font-size: 18px;&quot;&gt;&lt;b&gt;全驱动多艘&lt;/b&gt;&lt;/font&gt;" style="ellipse;whiteSpace=wrap;html=1;strokeWidth=2;fillWeight=2;hachureGap=8;fillColor=#fff2cc;fillStyle=dots;sketch=1;strokeColor=#d6b656;" vertex="1" parent="1">
          <mxGeometry x="170" y="300" width="120" height="60" as="geometry" />
        </mxCell>
        <mxCell id="GlCgljWv_Br-6OFDmJyN-20" value="&lt;font style=&quot;font-size: 18px;&quot;&gt;&lt;b&gt;欠驱动单艘&lt;/b&gt;&lt;/font&gt;" style="ellipse;whiteSpace=wrap;html=1;strokeWidth=2;fillWeight=2;hachureGap=8;fillColor=#fff2cc;fillStyle=dots;sketch=1;strokeColor=#d6b656;" vertex="1" parent="1">
          <mxGeometry x="180" y="390" width="120" height="60" as="geometry" />
        </mxCell>
        <mxCell id="GlCgljWv_Br-6OFDmJyN-21" value="&lt;font style=&quot;font-size: 18px;&quot;&gt;&lt;b&gt;欠驱动多艘&lt;/b&gt;&lt;/font&gt;" style="ellipse;whiteSpace=wrap;html=1;strokeWidth=2;fillWeight=2;hachureGap=8;fillColor=#fff2cc;fillStyle=dots;sketch=1;strokeColor=#d6b656;" vertex="1" parent="1">
          <mxGeometry x="180" y="490" width="120" height="60" as="geometry" />
        </mxCell>
        <mxCell id="GlCgljWv_Br-6OFDmJyN-22" value="&lt;font style=&quot;font-size: 18px;&quot;&gt;&lt;b&gt;欠驱动多艘+&lt;br&gt;不确定模型&lt;br&gt;&lt;/b&gt;&lt;/font&gt;" style="ellipse;whiteSpace=wrap;html=1;strokeWidth=2;fillWeight=2;hachureGap=8;fillColor=#fff2cc;fillStyle=dots;sketch=1;strokeColor=#d6b656;" vertex="1" parent="1">
          <mxGeometry x="180" y="590" width="120" height="60" as="geometry" />
        </mxCell>
        <mxCell id="GlCgljWv_Br-6OFDmJyN-26" value="&lt;font style=&quot;font-size: 18px;&quot;&gt;&lt;b&gt;欠驱动多艘+&lt;br&gt;不确定模型+&lt;br&gt;扰动&lt;br&gt;&lt;/b&gt;&lt;/font&gt;" style="ellipse;whiteSpace=wrap;html=1;strokeWidth=2;fillWeight=2;hachureGap=8;fillColor=#fff2cc;fillStyle=dots;sketch=1;strokeColor=#d6b656;" vertex="1" parent="1">
          <mxGeometry x="170" y="690" width="140" height="80" as="geometry" />
        </mxCell>
        <mxCell id="GlCgljWv_Br-6OFDmJyN-28" value="单个智能体围捕移动目标的理论推导.md" style="text;whiteSpace=wrap;fontSize=16;align=center;fontStyle=1" vertex="1" parent="1">
          <mxGeometry x="450" y="207.5" width="180" height="60" as="geometry" />
        </mxCell>
        <mxCell id="GlCgljWv_Br-6OFDmJyN-29" value="" style="html=1;shadow=0;dashed=0;align=center;verticalAlign=middle;shape=mxgraph.arrows2.arrow;dy=0.6;dx=40;notch=0;fillColor=#dae8fc;strokeColor=#6c8ebf;" vertex="1" parent="1">
          <mxGeometry x="320" y="220" width="70" height="35" as="geometry" />
        </mxCell>
        <mxCell id="GlCgljWv_Br-6OFDmJyN-30" value="" style="html=1;shadow=0;dashed=0;align=center;verticalAlign=middle;shape=mxgraph.arrows2.arrow;dy=0.6;dx=40;notch=0;fillColor=#dae8fc;strokeColor=#6c8ebf;" vertex="1" parent="1">
          <mxGeometry x="320" y="312.5" width="70" height="35" as="geometry" />
        </mxCell>
        <mxCell id="GlCgljWv_Br-6OFDmJyN-31" value="" style="html=1;shadow=0;dashed=0;align=center;verticalAlign=middle;shape=mxgraph.arrows2.arrow;dy=0.6;dx=40;notch=0;fontStyle=0;fillColor=#dae8fc;strokeColor=#6c8ebf;rotation=35;" vertex="1" parent="1">
          <mxGeometry x="320" y="402.5" width="100" height="35" as="geometry" />
        </mxCell>
        <mxCell id="GlCgljWv_Br-6OFDmJyN-32" value="" style="html=1;shadow=0;dashed=0;align=center;verticalAlign=middle;shape=mxgraph.arrows2.arrow;dy=0.6;dx=40;notch=0;fillColor=#dae8fc;strokeColor=#6c8ebf;rotation=-30;" vertex="1" parent="1">
          <mxGeometry x="317.99" y="495" width="100" height="35" as="geometry" />
        </mxCell>
        <mxCell id="GlCgljWv_Br-6OFDmJyN-35" value="全驱动船模型的多智能体系统围捕移动目标的理论推导（不使用目标速度）.md" style="text;whiteSpace=wrap;fontSize=15;fontStyle=1;align=center;" vertex="1" parent="1">
          <mxGeometry x="410" y="307.5" width="280" height="62.5" as="geometry" />
        </mxCell>
        <mxCell id="GlCgljWv_Br-6OFDmJyN-36" value="欠驱动船模型的多智能体系统围捕移动目标的理论推导（不使用目标速度兼有数值实验结果）.md" style="text;whiteSpace=wrap;fontSize=15;fontStyle=1;align=center;" vertex="1" parent="1">
          <mxGeometry x="440" y="430" width="240" height="70" as="geometry" />
        </mxCell>
        <mxCell id="GlCgljWv_Br-6OFDmJyN-37" value="不确定+扰动欠驱动船模型的多智能体系统围捕移动目标的理论推导（不使用目标速度兼有数值仿真、3D仿真实验结果）.md" style="text;whiteSpace=wrap;fontSize=15;fontStyle=1;align=center;" vertex="1" parent="1">
          <mxGeometry x="400" y="650" width="320" height="70" as="geometry" />
        </mxCell>
        <mxCell id="GlCgljWv_Br-6OFDmJyN-38" value="" style="html=1;shadow=0;dashed=0;align=center;verticalAlign=middle;shape=mxgraph.arrows2.arrow;dy=0.6;dx=40;notch=0;fontStyle=0;fillColor=#dae8fc;strokeColor=#6c8ebf;rotation=35;" vertex="1" parent="1">
          <mxGeometry x="319" y="620" width="100" height="35" as="geometry" />
        </mxCell>
        <mxCell id="GlCgljWv_Br-6OFDmJyN-39" value="" style="html=1;shadow=0;dashed=0;align=center;verticalAlign=middle;shape=mxgraph.arrows2.arrow;dy=0.6;dx=40;notch=0;fillColor=#dae8fc;strokeColor=#6c8ebf;rotation=-30;" vertex="1" parent="1">
          <mxGeometry x="316.99" y="712.5" width="100" height="35" as="geometry" />
        </mxCell>
        <mxCell id="GlCgljWv_Br-6OFDmJyN-40" value="Enclosing_usv_version3.m&#xa;Enclosing_usv_version1_main .m" style="text;whiteSpace=wrap;fontSize=15;fontStyle=1;align=center;" vertex="1" parent="1">
          <mxGeometry x="780" y="210" width="260" height="45" as="geometry" />
        </mxCell>
        <mxCell id="GlCgljWv_Br-6OFDmJyN-41" value="Enclosing_usv_multi_version1_main.m&#xa;Enclosing_usv_multi_version1.m" style="text;whiteSpace=wrap;fontSize=15;fontStyle=1;align=center;" vertex="1" parent="1">
          <mxGeometry x="799" y="289.38" width="230" height="40" as="geometry" />
        </mxCell>
        <mxCell id="GlCgljWv_Br-6OFDmJyN-42" value="Enclosing_usv_version24_underactuated_main.m&#xa;Enclosing_usv_version24_underactuated.m" style="text;whiteSpace=wrap;fontSize=15;fontStyle=1;align=center;" vertex="1" parent="1">
          <mxGeometry x="780" y="379.38" width="290" height="40" as="geometry" />
        </mxCell>
        <mxCell id="GlCgljWv_Br-6OFDmJyN-43" value="Enclosing_usv_multi_version1_underactuated.m&#xa;Enclosing_usv_multi_version1_underactuated_main.m" style="text;whiteSpace=wrap;fontSize=15;fontStyle=1;align=center;" vertex="1" parent="1">
          <mxGeometry x="770" y="476.88" width="310" height="50" as="geometry" />
        </mxCell>
        <mxCell id="GlCgljWv_Br-6OFDmJyN-44" value="Enclosing_usv_multi_version2_underactuated.m&#xa;Enclosing_usv_multi_version2_underactuated_main.m" style="text;whiteSpace=wrap;fontSize=15;fontStyle=1;align=center;" vertex="1" parent="1">
          <mxGeometry x="770" y="571.88" width="310" height="50" as="geometry" />
        </mxCell>
        <mxCell id="GlCgljWv_Br-6OFDmJyN-45" value="Enclosing_usv_multi_version3_underactuated&#xa;Enclosing_usv_multi_version3_underactuated_main" style="text;whiteSpace=wrap;fontSize=15;fontStyle=1;align=center;" vertex="1" parent="1">
          <mxGeometry x="770" y="689.38" width="310" height="50" as="geometry" />
        </mxCell>
        <mxCell id="GlCgljWv_Br-6OFDmJyN-54" value="Cooperative_Constrained_Enclosing_Control_of_Multi_USVs" style="text;whiteSpace=wrap;rotation=90;horizontal=1;fontSize=21;fontStyle=3" vertex="1" parent="1">
          <mxGeometry x="1551" y="330" width="360" height="40" as="geometry" />
        </mxCell>
        <mxCell id="GlCgljWv_Br-6OFDmJyN-55" value="Enclosing_control_v3_kinect" style="text;whiteSpace=wrap;fontSize=15;fontStyle=1;align=center;" vertex="1" parent="1">
          <mxGeometry x="1154" y="248.75" width="190" height="40" as="geometry" />
        </mxCell>
        <mxCell id="GlCgljWv_Br-6OFDmJyN-56" value="Enclosing_control_v3_kinect_multi5" style="text;whiteSpace=wrap;fontSize=15;fontStyle=1;align=center;" vertex="1" parent="1">
          <mxGeometry x="1154" y="655" width="220" height="40" as="geometry" />
        </mxCell>
        <mxCell id="GlCgljWv_Br-6OFDmJyN-57" value="；" style="rounded=1;whiteSpace=wrap;html=1;strokeWidth=2;fillWeight=4;hachureGap=8;hachureAngle=45;fillColor=#e1d5e7;sketch=1;fillStyle=auto;strokeColor=#9673a6;" vertex="1" parent="1">
          <mxGeometry x="1451" y="100" width="120" height="60" as="geometry" />
        </mxCell>
        <mxCell id="GlCgljWv_Br-6OFDmJyN-58" value="3D仿真视频" style="text;html=1;fontSize=24;fontStyle=1;verticalAlign=middle;align=center;" vertex="1" parent="1">
          <mxGeometry x="1461" y="110" width="100" height="40" as="geometry" />
        </mxCell>
        <mxCell id="GlCgljWv_Br-6OFDmJyN-60" value="single_usv_Enclosing_control_kinect" style="text;whiteSpace=wrap;fontSize=15;fontStyle=1;align=center;" vertex="1" parent="1">
          <mxGeometry x="1410" y="248.75" width="230" height="40" as="geometry" />
        </mxCell>
        <mxCell id="GlCgljWv_Br-6OFDmJyN-61" value="multi_usv_Enclosing_control_kinect" style="text;whiteSpace=wrap;fontSize=15;fontStyle=1;align=center;" vertex="1" parent="1">
          <mxGeometry x="1430" y="445" width="220" height="40" as="geometry" />
        </mxCell>
        <mxCell id="GlCgljWv_Br-6OFDmJyN-62" value="Enclosing_control_v3_kinect_multi" style="text;whiteSpace=wrap;fontSize=15;fontStyle=1;align=center;" vertex="1" parent="1">
          <mxGeometry x="1154" y="445" width="220" height="40" as="geometry" />
        </mxCell>
      </root>
    </mxGraphModel>
  </diagram>
</mxfile>
